<?xml version="1.0" encoding="utf-8"?>
<!-- Generator: Adobe Illustrator 16.0.0, SVG Export Plug-In . SVG Version: 6.00 Build 0)  -->
<!DOCTYPE svg PUBLIC "-//W3C//DTD SVG 1.1//EN" "http://www.w3.org/Graphics/SVG/1.1/DTD/svg11.dtd">
<svg version="1.1" id="Layer_1" xmlns="http://www.w3.org/2000/svg" xmlns:xlink="http://www.w3.org/1999/xlink" x="0px" y="0px"
	 width="283.486px" height="332.983px" viewBox="257.098 59.599 283.486 332.983"
	 enable-background="new 257.098 59.599 283.486 332.983" xml:space="preserve">
<path d="M531.198,149.562c-0.079-0.54-0.414-1.016-0.899-1.274c-0.486-0.252-1.069-0.274-1.57-0.051l-0.724,0.332
	c-2.692,0.471-5.22,0.497-7.888,0.522c-2.923,0.029-5.954,0.058-9.345,0.691l-5.062,0.936c-7.989,1.462-16.244,2.97-24.124,5.469
	c-9.094,2.891-18.551,6.311-26.031,11.721c-3.064,2.214-5.541,4.669-7.819,7.258c2.854-5.803,6.379-11.207,9.86-16.456
	c1.072-1.616,2.149-3.251,3.211-4.896c5.681-1.152,10.483-2.844,16.254-5.789c9.824-5.022,11.722-11.167,14.609-20.466l0.255-0.824
	c3.467-11.153,2.049-21.042,0.008-31.893l-2.398-12.69c-0.583-3.165-1.785-5.641-2.938-8.035c-0.878-1.818-1.71-3.528-2.3-5.537
	c-0.245-0.875-1.109-1.386-2.023-1.231l-0.486,0.083c-5.147,1.17-7.312,2.722-9.611,4.36l-1.617,1.13
	c-2.692,1.875-5.745,3.996-7.754,6.548c-5.162,6.523-9.212,17.035-10.785,24.048c-1.688,7.456-1.624,15.138-1.57,22.569l0.021,3.636
	c0.015,6.426,0.436,15.603,3.979,21.085c0.075,0.115,0.169,0.223,0.267,0.32l2.257,2.138c-0.767,1.167-1.533,2.329-2.318,3.506
	c-4.475,6.761-9.108,13.749-12.29,21.701c-5.642,14.098-12.806,26.64-20.614,39.161c2.431-22.251-1.437-46.264-11.609-71.536
	c-0.213-0.508-0.642-0.889-1.159-1.037c-0.529-0.141-1.091-0.033-1.534,0.299l-0.709,0.547
	c-17.615,12.283-13.025,36.162-9.68,53.597l1.039,5.53c2.104,11.387,4.134,22.147,11.574,31.586
	c-0.921,1.433-1.836,2.854-2.757,4.31c-7.438,11.761-17.604,27.082-29.351,41.468c2.29-13.503,3.009-26.053,0.27-40.586
	c-0.249-1.321-0.493-2.786-0.752-4.36c-1.854-11.152-4.392-26.413-14.99-31.398l-0.94-0.27c-0.742-0.206-1.526,0.075-1.947,0.716
	l-1.231,1.857c-5.339,8.028-11.394,17.132-13.266,26.838c-1.404,7.214,0.332,15.657,1.858,23.098c0.281,1.364,0.554,2.7,0.799,3.981
	c0.31,1.627,0.569,3.291,0.825,4.961c1.094,7.038,2.221,14.317,7.229,19.927c0.396,0.449,0.832,0.975,1.296,1.54
	c1.796,2.175,3.834,4.637,6.113,5.738c1.22,0.583,2.394,0.753,3.474,0.839c-2.138,2.254-4.298,4.453-6.509,6.549
	c-6.934,6.588-13.759,13.662-20.361,20.509c-9.785,10.138-19.026,19.725-28.735,28.022c-12.654,10.814-27,19.959-40.875,28.8
	l-0.45,0.288c-0.817,0.525-1.055,1.603-0.533,2.419c0.334,0.526,0.9,0.814,1.476,0.814c0.324,0,0.652-0.083,0.943-0.271l0.45-0.288
	c13.975-8.906,28.425-18.115,41.267-29.088c0.907-0.777,1.807-1.627,2.714-2.434c5.321,13.252,13.716,21.687,25.009,25.027
	c6.412,1.887,12.348,2.624,18.202,2.624c7.513,0,14.89-1.209,22.961-2.729l0.803-0.151c9.061-1.706,22.687-4.259,27.356-14.019
	l0.429-0.323c0.76-0.576,0.914-1.66,0.36-2.431c-7.949-10.947-22.014-16.081-31.903-18.979c-9.191-2.701-19.095-5.076-29.135-4.151
	c-7.261,0.666-13.684,1.786-19.642,3.438c-0.785,0.216-1.66,0.374-2.566,0.551c4.863-4.811,9.673-9.799,14.4-14.695
	c6.577-6.826,13.377-13.875,20.253-20.405c10.577-10.04,20.354-22.071,28.901-33.793c0.623,0.457,1.246,0.889,1.868,1.379
	c2.33,1.828,4.972,3.902,8.562,5.075c4.1,1.34,8.798,2.021,13.784,2.021c3.629,0,7.419-0.36,11.229-1.084l0.942-0.184
	c21.438-4.071,48.114-9.133,53.986-33.951c0.064-0.241,0.064-0.504,0.014-0.749l-0.082-0.439c-0.058-0.241-0.155-0.482-0.31-0.684
	c-2.175-2.967-7.841-3.622-12.827-4.205c-1.418-0.162-2.693-0.31-3.654-0.501c-7.797-1.562-16.275-0.936-24.998-0.09
	c-10.383,0.979-21.902,3.946-30.085,7.715c-0.573,0.26-1.091,0.645-1.613,0.998c0.662-1.016,1.357-2.103,1.97-3.074
	c2.08-3.291,4.161-6.523,6.224-9.75c1.426-2.213,2.834-4.413,4.237-6.605c0.008-0.011,0.015-0.018,0.021-0.032
	c6.117-9.598,11.935-19.076,17.137-29.088c0.043-0.007,0.075-0.004,0.118-0.018c2.833-0.839,5.62-0.669,8.564-0.482
	c2.146,0.14,4.338,0.284,6.714,0.047c6.02-0.594,11.801-2.023,17.41-3.409c3.563-0.882,7.258-1.793,10.9-2.462
	c14.313-2.61,24.826-7.279,35.176-15.628C524.848,168.566,532.948,160.959,531.198,149.562z M488.474,95.479
	c1.955,10.386,3.312,19.825,0.079,30.208l-0.248,0.828c-2.805,9.05-4.353,14.033-12.859,18.378
	c-4.31,2.203-8.028,3.676-12.053,4.734c4.654-7.708,8.579-15.98,9.583-25.852l0.299-3.006c0.677-6.88,1.159-11.851,3.345-18.756
	c0.485-1.523,1.26-3.6,2.146-5.98c2.523-6.808,4.716-13.032,5.717-18.079c0.669,1.505,1.274,3.042,1.595,4.828L488.474,95.479z
	 M457.29,148.733c-3.29-5.307-3.312-15.61-3.318-19.019l-0.022-3.657c-0.061-7.564-0.111-14.706,1.477-21.766
	c1.548-6.847,5.515-16.83,10.119-22.648c1.703-2.146,4.529-4.111,7.017-5.846l1.638-1.152c1.977-1.408,3.586-2.542,7.14-3.492
	c1.141,4.705-3.197,16.466-5.872,23.663c-0.907,2.448-1.706,4.583-2.188,6.146c-2.297,7.254-2.79,12.376-3.492,19.469l-0.303,2.988
	c-1.048,10.268-5.386,18.608-10.584,26.842L457.29,148.733z M331.071,342.294c5.756-1.591,11.977-2.686,19.022-3.33
	c9.468-0.846,18.976,1.43,27.828,4.029c9.77,2.873,21.773,7.322,29.124,16.466c-0.007,0.021-0.021,0.047-0.036,0.076
	c-3.722,8.417-16.513,10.814-24.98,12.398l-0.803,0.151c-13.899,2.617-25.625,4.287-39.524,0.184
	c-10.479-3.093-18.27-11.139-23.163-23.908c-0.029-0.075-0.086-0.126-0.122-0.197c0.032-0.029,0.064-0.065,0.093-0.084
	c0.929-0.18,1.829-0.359,2.689-0.532c3.11-0.647,5.796-1.202,9.162-1.264c0.086,0,0.176,0,0.259,0c4.604,0,9.288,1.933,13.816,3.81
	c1.916,0.787,4.075,2.022,6.358,3.326c4.305,2.466,8.759,5.011,12.927,5.407c0.062,0.007,0.115,0.007,0.173,0.007
	c0.889,0,1.652-0.677,1.739-1.577c0.09-0.968-0.612-1.821-1.577-1.907c-3.42-0.336-7.542-2.679-11.527-4.965
	c-2.379-1.361-4.629-2.643-6.757-3.524c-4.712-1.948-10.062-4.27-15.469-4.071c-0.681,0.018-1.314,0.068-1.955,0.104
	C329.314,342.701,330.243,342.518,331.071,342.294z M401.556,204.396l-1.044-5.555c-3.263-17.006-7.305-38.07,7.232-49.316
	c10.457,26.859,13.637,52.186,9.479,75.319c-0.375,0.586-0.76,1.181-1.131,1.768c-0.619-1.649-1.26-3.294-1.89-4.903
	c-2.175-5.454-4.241-10.602-5.371-16.643c-0.76-4.053-0.994-8.143-1.231-12.096c-0.119-2.045-0.237-4.083-0.429-6.12
	c-0.079-0.968-1.012-1.703-1.896-1.584c-0.965,0.086-1.675,0.939-1.584,1.901c0.184,2.001,0.299,4,0.414,6.008
	c0.237,4.064,0.481,8.269,1.285,12.539c1.198,6.376,3.416,11.927,5.558,17.298c0.843,2.117,1.699,4.251,2.502,6.455
	c0.083,0.245,0.274,0.41,0.45,0.584c-0.237,0.373-0.479,0.74-0.716,1.115c-0.486,0.76-0.976,1.537-1.466,2.301
	C405.422,224.956,403.589,215.387,401.556,204.396z M367.323,291.837c-1.055-0.072-2.052-0.126-2.956-0.555
	c-1.58-0.767-3.438-3.01-4.925-4.812c-0.497-0.598-0.961-1.156-1.386-1.635c-4.316-4.846-5.321-11.3-6.379-18.134
	c-0.263-1.713-0.525-3.408-0.842-5.075c-0.249-1.296-0.526-2.646-0.813-4.036c-1.458-7.124-3.114-15.203-1.851-21.726
	c1.739-9.015,7.585-17.802,12.744-25.56l0.475-0.716c8.262,4.403,10.566,18.266,12.254,28.439c0.266,1.596,0.515,3.09,0.767,4.432
	c2.966,15.746,1.807,28.689-1.13,44.028c-0.792-1.573-1.883-3.204-2.992-4.803c-1.087-1.576-2.113-3.06-2.729-4.323
	c-1.901-3.881-3.046-7.2-3.823-11.096l-0.241-1.209c-0.965-4.795-1.548-7.689,0.184-11.686c0.385-0.893-0.025-1.916-0.911-2.308
	c-0.896-0.378-1.922,0.028-2.304,0.911c-2.171,5.011-1.39,8.877-0.403,13.766l0.238,1.203c0.839,4.215,2.07,7.79,4.111,11.955
	c0.73,1.501,1.879,3.165,2.995,4.767c1.476,2.143,3.15,4.564,3.441,6.123c0.025,0.123,0.083,0.23,0.133,0.354
	c-0.569,0.648-1.141,1.285-1.725,1.918C368.604,291.941,367.949,291.876,367.323,291.837z M411.005,248.061
	c7.855-3.617,18.943-6.458,28.955-7.408c8.46-0.814,16.65-1.426,23.983,0.047c1.033,0.205,2.404,0.367,3.931,0.539
	c3.165,0.371,8.299,0.965,10.056,2.42c-5.667,22.068-30.823,26.842-51.077,30.683l-0.943,0.177
	c-8.471,1.602-16.732,1.314-23.271-0.824c-3.003-0.977-5.281-2.775-7.484-4.5c-0.586-0.461-1.177-0.857-1.76-1.293
	c0.273-0.076,0.533-0.201,0.752-0.403c9.519-9.335,31.259-12.841,44.366-9.763c0.958,0.223,1.879-0.371,2.103-1.304
	c0.224-0.939-0.363-1.879-1.3-2.106c-10.512-2.479-26.093-1.09-37.699,4.162c0.937-1.123,1.833-2.308,2.696-3.514
	C406.351,252.161,408.46,249.23,411.005,248.061z M514.195,172.652c-9.86,7.952-19.904,12.409-33.603,14.911
	c-3.762,0.684-7.502,1.609-11.116,2.502c-5.476,1.357-11.153,2.757-16.916,3.326c-2.066,0.209-4.141,0.076-6.139-0.054
	c-2.229-0.144-4.515-0.274-6.876,0.029c0.641-1.296,1.253-2.625,1.868-3.949c2.196-1.307,4.374-2.736,6.57-4.183
	c5.012-3.305,10.188-6.718,15.851-8.701c4.532-1.581,9.461-2.43,14.221-3.248c1.476-0.252,2.944-0.507,4.417-0.781
	c0.954-0.18,1.576-1.094,1.403-2.044c-0.18-0.951-1.123-1.591-2.044-1.4c-1.444,0.27-2.905,0.522-4.36,0.774
	c-4.903,0.842-9.976,1.717-14.774,3.395c-5.799,2.023-10.954,5.343-15.926,8.622c3.269-4.183,6.4-7.895,10.843-11.103
	c7.081-5.123,16.229-8.42,25.045-11.221c7.672-2.427,15.822-3.917,23.695-5.357l5.084-0.94c3.074-0.579,5.943-0.608,8.726-0.633
	c2.488-0.025,5.048-0.05,7.77-0.461C528.175,160.613,521.594,166.687,514.195,172.652z"/>
</svg>
