<svg xmlns="http://www.w3.org/2000/svg" width="283.486" height="332.983" viewBox="257.098 59.599 283.486 332.983"><path d="M531.198 149.562c-.08-.54-.414-1.016-.9-1.274-.485-.252-1.068-.274-1.57-.05l-.723.33c-2.692.472-5.22.498-7.888.523-2.923.03-5.954.06-9.345.7l-5.062.935c-7.99 1.46-16.244 2.97-24.124 5.47-9.094 2.89-18.55 6.31-26.03 11.72-3.065 2.214-5.542 4.67-7.82 7.258 2.854-5.802 6.38-11.206 9.86-16.455 1.072-1.614 2.15-3.25 3.21-4.894 5.682-1.15 10.484-2.843 16.255-5.79 9.83-5.02 11.73-11.165 14.61-20.464l.26-.825c3.47-11.153 2.05-21.042.01-31.893l-2.4-12.69c-.582-3.166-1.784-5.64-2.94-8.036-.88-1.817-1.71-3.527-2.3-5.536-.243-.874-1.11-1.385-2.02-1.23l-.487.083c-5.146 1.17-7.31 2.72-9.61 4.36l-1.62 1.13c-2.69 1.875-5.742 3.996-7.75 6.548-5.163 6.526-9.213 17.038-10.786 24.05-1.687 7.457-1.623 15.14-1.57 22.57l.022 3.636c.014 6.426.435 15.603 3.98 21.085.073.115.167.223.265.32l2.258 2.138c-.767 1.168-1.533 2.33-2.318 3.507-4.478 6.76-9.11 13.75-12.29 21.7-5.645 14.1-12.81 26.64-20.617 39.16 2.43-22.25-1.437-46.263-11.61-71.535-.212-.51-.64-.89-1.158-1.04-.53-.14-1.09-.03-1.535.3l-.706.55c-17.617 12.282-13.027 36.16-9.68 53.596l1.04 5.53c2.1 11.388 4.13 22.148 11.57 31.587-.92 1.433-1.835 2.854-2.756 4.31-7.438 11.76-17.604 27.082-29.35 41.47 2.29-13.505 3.01-26.055.27-40.588-.25-1.32-.494-2.787-.753-4.36-1.853-11.153-4.39-26.414-14.99-31.4l-.94-.27c-.74-.205-1.525.076-1.946.717l-1.23 1.857c-5.34 8.026-11.393 17.13-13.265 26.836-1.404 7.214.332 15.657 1.86 23.098.28 1.366.552 2.7.797 3.98.31 1.63.57 3.294.825 4.964 1.095 7.037 2.22 14.316 7.23 19.926.396.45.83.976 1.296 1.54 1.795 2.176 3.833 4.638 6.112 5.74 1.22.583 2.394.753 3.474.84-2.135 2.253-4.295 4.452-6.51 6.55-6.93 6.586-13.755 13.66-20.36 20.51-9.782 10.135-19.023 19.722-28.732 28.02-12.654 10.813-27 19.96-40.875 28.8l-.45.29c-.817.522-1.055 1.6-.533 2.416.335.526.9.814 1.477.814.325 0 .653-.083.944-.27l.45-.29c13.975-8.905 28.425-18.114 41.267-29.087.908-.778 1.808-1.628 2.715-2.435 5.32 13.25 13.717 21.684 25.01 25.024 6.41 1.886 12.348 2.623 18.2 2.623 7.515 0 14.89-1.21 22.96-2.73l.806-.15c9.06-1.707 22.688-4.26 27.357-14.02l.43-.323c.76-.575.913-1.66.36-2.43-7.95-10.947-22.015-16.08-31.904-18.98-9.192-2.7-19.096-5.075-29.136-4.15-7.26.666-13.686 1.786-19.644 3.438-.785.217-1.66.375-2.566.55 4.864-4.81 9.674-9.797 14.4-14.693 6.578-6.824 13.378-13.873 20.254-20.403 10.577-10.04 20.354-22.07 28.9-33.795.624.458 1.247.89 1.87 1.38 2.33 1.828 4.97 3.9 8.56 5.075 4.1 1.34 8.8 2.02 13.785 2.02 3.63 0 7.42-.36 11.23-1.083l.94-.184c21.44-4.07 48.115-9.132 53.987-33.95.065-.24.065-.504.015-.75l-.082-.44c-.058-.24-.155-.48-.31-.682-2.175-2.964-7.84-3.62-12.827-4.202-1.415-.16-2.69-.31-3.65-.5-7.8-1.56-16.276-.935-25-.09-10.383.98-21.902 3.947-30.085 7.716-.574.26-1.092.647-1.614 1 .663-1.016 1.36-2.103 1.97-3.074 2.08-3.29 4.16-6.523 6.225-9.75 1.425-2.213 2.833-4.413 4.236-6.605.01-.01.02-.017.02-.03 6.12-9.6 11.94-19.077 17.14-29.09.045-.006.077-.003.12-.017 2.833-.84 5.62-.67 8.564-.482 2.147.14 4.34.285 6.715.048 6.02-.594 11.8-2.023 17.41-3.41 3.562-.88 7.26-1.792 10.9-2.46 14.312-2.61 24.825-7.28 35.175-15.63 8.44-6.796 16.54-14.403 14.79-25.8zM488.474 95.48c1.955 10.385 3.312 19.824.08 30.207l-.25.828c-2.804 9.05-4.352 14.033-12.858 18.378-4.31 2.203-8.028 3.676-12.053 4.734 4.654-7.708 8.58-15.98 9.583-25.852l.3-3.006c.676-6.88 1.158-11.86 3.344-18.76.485-1.527 1.26-3.6 2.146-5.98 2.523-6.81 4.716-13.03 5.717-18.08.67 1.502 1.274 3.04 1.595 4.83l2.396 12.692zm-31.184 53.253c-3.29-5.307-3.312-15.61-3.318-19.02l-.022-3.656c-.06-7.564-.11-14.706 1.477-21.766 1.548-6.84 5.515-16.83 10.12-22.64 1.702-2.146 4.528-4.11 7.016-5.846l1.638-1.152c1.98-1.407 3.59-2.54 7.14-3.49 1.15 4.704-3.19 16.465-5.87 23.662-.9 2.448-1.7 4.583-2.19 6.146-2.29 7.254-2.79 12.376-3.49 19.47l-.3 2.987c-1.05 10.27-5.383 18.61-10.58 26.84l-1.613-1.525zm-126.22 193.56c5.757-1.59 11.978-2.685 19.023-3.33 9.468-.845 18.976 1.43 27.828 4.03 9.77 2.873 21.78 7.322 29.13 16.466-.005.02-.02.04-.034.07-3.722 8.415-16.513 10.812-24.98 12.4l-.803.15c-13.9 2.62-25.625 4.29-39.524.182-10.48-3.093-18.27-11.14-23.164-23.908-.03-.076-.088-.127-.124-.198.03-.03.064-.066.093-.085.93-.18 1.83-.36 2.69-.532 3.11-.648 5.795-1.203 9.16-1.265h.26c4.604 0 9.288 1.932 13.816 3.81 1.916.786 4.075 2.02 6.358 3.325 4.305 2.466 8.76 5.01 12.927 5.407.063.007.116.007.174.007.89 0 1.65-.678 1.74-1.578.09-.97-.614-1.82-1.58-1.908-3.42-.337-7.542-2.68-11.527-4.966-2.38-1.36-4.63-2.644-6.76-3.525-4.71-1.947-10.06-4.27-15.47-4.07-.68.018-1.313.068-1.954.104.965-.19 1.894-.375 2.722-.6zm70.486-137.897l-1.044-5.555c-3.263-17-7.305-38.07 7.232-49.31 10.457 26.86 13.637 52.188 9.48 75.32-.376.587-.76 1.18-1.132 1.77-.62-1.65-1.26-3.295-1.89-4.904-2.175-5.454-4.24-10.602-5.37-16.643-.76-4.053-.995-8.143-1.232-12.096-.12-2.044-.237-4.082-.43-6.12-.078-.967-1.01-1.702-1.895-1.583-.965.087-1.675.94-1.584 1.9.19 2.003.3 4 .42 6.01.24 4.064.48 8.27 1.287 12.54 1.2 6.375 3.417 11.926 5.56 17.297.842 2.118 1.7 4.25 2.5 6.456.084.247.275.41.45.586-.236.376-.48.74-.715 1.118-.486.76-.976 1.536-1.466 2.3-6.296-8.51-8.13-18.08-10.162-29.07zm-34.233 87.44c-1.055-.07-2.052-.125-2.956-.554-1.58-.767-3.438-3.01-4.925-4.812-.497-.598-.96-1.156-1.386-1.635-4.316-4.846-5.32-11.3-6.38-18.134-.262-1.71-.524-3.4-.84-5.07-.25-1.293-.527-2.643-.814-4.033-1.458-7.123-3.114-15.202-1.85-21.725 1.738-9.015 7.584-17.802 12.743-25.56l.475-.716c8.262 4.403 10.566 18.266 12.254 28.44.266 1.595.515 3.09.767 4.43 2.97 15.747 1.81 28.69-1.13 44.03-.79-1.574-1.88-3.205-2.99-4.804-1.08-1.578-2.11-3.06-2.73-4.325-1.9-3.88-3.04-7.2-3.82-11.095l-.24-1.21c-.962-4.793-1.55-7.687.187-11.684.386-.893-.024-1.916-.91-2.308-.896-.378-1.922.028-2.304.91-2.17 5.012-1.39 8.878-.403 13.767l.237 1.203c.84 4.215 2.07 7.79 4.11 11.955.73 1.5 1.88 3.165 2.997 4.767 1.478 2.142 3.15 4.563 3.44 6.122.028.123.086.23.136.354-.57.65-1.14 1.286-1.724 1.92-.65-.12-1.305-.184-1.93-.223zm43.682-43.775c7.855-3.61 18.943-6.45 28.955-7.4 8.46-.814 16.65-1.426 23.983.047 1.033.206 2.404.368 3.93.54 3.166.37 8.3.965 10.057 2.42-5.667 22.068-30.823 26.84-51.077 30.683l-.943.176c-8.47 1.6-16.732 1.313-23.27-.825-3.004-.976-5.282-2.774-7.485-4.5-.586-.46-1.177-.856-1.76-1.292.273-.076.533-.2.752-.403 9.52-9.336 31.26-12.842 44.366-9.764.958.22 1.88-.37 2.103-1.305.224-.94-.363-1.88-1.3-2.105-10.512-2.48-26.093-1.09-37.7 4.16.938-1.125 1.834-2.31 2.697-3.516 2.038-2.813 4.147-5.744 6.692-6.913zm103.19-75.4c-9.86 7.95-19.904 12.41-33.603 14.91-3.762.684-7.502 1.61-11.116 2.502-5.476 1.357-11.153 2.757-16.916 3.326-2.066.21-4.14.077-6.14-.053-2.228-.144-4.514-.274-6.875.03.64-1.297 1.253-2.626 1.868-3.95 2.196-1.307 4.374-2.736 6.57-4.183 5.012-3.307 10.188-6.72 15.85-8.7 4.533-1.584 9.462-2.43 14.222-3.25 1.476-.25 2.944-.508 4.417-.78.954-.18 1.576-1.096 1.403-2.046-.18-.95-1.123-1.59-2.044-1.4-1.44.27-2.9.522-4.36.774-4.9.84-9.97 1.716-14.77 3.394-5.8 2.024-10.95 5.344-15.922 8.62 3.27-4.18 6.4-7.892 10.844-11.1 7.08-5.123 16.23-8.42 25.045-11.22 7.67-2.43 15.82-3.92 23.695-5.36l5.082-.94c3.074-.58 5.943-.606 8.726-.63 2.487-.026 5.047-.05 7.77-.46.24 8.475-6.34 14.55-13.74 20.514z"/></svg>